<?xml version="1.0" encoding="UTF-8"?>
<svg id="_2" data-name="2" xmlns="http://www.w3.org/2000/svg" version="1.1" viewBox="0 0 800 800">
  <defs>
    <style>
      .cls-1 {
        fill: #6a6a6a;
        stroke-width: 0px;
      }
    </style>
  </defs>
  <path class="cls-1" d="M400,0h0C246,0,135.9,72.7,71.4,177.1,26.1,250.4,3.2,339.2,3.2,429.5s17.9,149.7,58.3,189.3c53.3,52.3,116,47,122.3,52.6v106.4c0,12.3,9.9,22.2,22.2,22.2h53.2c12.2,0,22.1-9.9,22.1-22.2v-67.5c5.2-3,9.9.5,14.2-1.7,0,.2,0,.3,0,.5v68.7c0,12.3,9.9,22.2,22.2,22.2h53.2c12.3,0,22.2-9.9,22.2-22.2v-68.7c0-2.2-.4-4.3-1.1-6.4h16.2c-.6,2.1-1.1,4.2-1.1,6.4v68.7c0,12.3,9.9,22.2,22.2,22.2h53.2c12.3,0,22.2-9.9,22.2-22.2v-68.7c0-.2,0-.3,0-.5,4.2,2.2,9-1.3,14.2,1.7v67.5c0,12.3,9.9,22.2,22.1,22.2h53.2c12.3,0,22.2-9.9,22.2-22.2v-106.4c6.3-5.6,69-.2,122.3-52.6,40.3-39.6,58.3-107.1,58.3-189.3C796.8,210.4,662.1,0,400,0ZM230.7,530.1c-53.3,0-96.5-43.2-96.5-96.5v-21.9c0-53.3,43.2-96.4,96.5-96.4s96.5,43.2,96.5,96.4v21.9c0,53.3-43.2,96.5-96.5,96.5ZM400,620.3h-76.4l76.4-97.9,76.4,97.9h-76.4ZM665.7,433.7c0,53.3-43.2,96.5-96.5,96.5s-96.5-43.2-96.5-96.5v-21.9c0-53.3,43.2-96.4,96.5-96.4s96.5,43.2,96.5,96.4v21.9Z"/>
</svg>